<mxfile host="65bd71144e">
    <diagram id="onZAczfE8i0wJHaV8X-x" name="第 1 页">
        <mxGraphModel dx="1725" dy="769" grid="1" gridSize="10" guides="1" tooltips="1" connect="1" arrows="1" fold="1" page="1" pageScale="1" pageWidth="827" pageHeight="1169" math="0" shadow="0">
            <root>
                <mxCell id="0"/>
                <mxCell id="1" parent="0"/>
                <mxCell id="414" value="" style="group" vertex="1" connectable="0" parent="1">
                    <mxGeometry x="-90" y="140" width="740" height="530" as="geometry"/>
                </mxCell>
                <mxCell id="410" value="" style="rounded=0;whiteSpace=wrap;html=1;fillColor=default;" vertex="1" parent="414">
                    <mxGeometry x="120" y="50" width="620" height="120" as="geometry"/>
                </mxCell>
                <mxCell id="409" value="" style="rounded=0;whiteSpace=wrap;html=1;fillColor=default;" vertex="1" parent="414">
                    <mxGeometry x="120" width="620" height="50" as="geometry"/>
                </mxCell>
                <mxCell id="408" value="" style="group" vertex="1" connectable="0" parent="414">
                    <mxGeometry width="120" height="530" as="geometry"/>
                </mxCell>
                <mxCell id="407" value="&lt;font style=&quot;font-size: 16px;&quot;&gt;S4 Compute&lt;/font&gt;" style="rounded=0;whiteSpace=wrap;html=1;fillColor=default;" vertex="1" parent="408">
                    <mxGeometry y="410" width="120" height="120" as="geometry"/>
                </mxCell>
                <mxCell id="406" value="&lt;font style=&quot;font-size: 16px;&quot;&gt;S3 Compute&lt;/font&gt;" style="rounded=0;whiteSpace=wrap;html=1;fillColor=default;" vertex="1" parent="408">
                    <mxGeometry y="290" width="120" height="120" as="geometry"/>
                </mxCell>
                <mxCell id="405" value="&lt;font style=&quot;font-size: 16px;&quot;&gt;S2 Compute&lt;/font&gt;" style="rounded=0;whiteSpace=wrap;html=1;fillColor=default;" vertex="1" parent="408">
                    <mxGeometry y="170" width="120" height="120" as="geometry"/>
                </mxCell>
                <mxCell id="404" value="&lt;font style=&quot;font-size: 16px;&quot;&gt;S1 Compute&lt;/font&gt;" style="rounded=0;whiteSpace=wrap;html=1;fillColor=default;" vertex="1" parent="408">
                    <mxGeometry y="50" width="120" height="120" as="geometry"/>
                </mxCell>
                <mxCell id="403" value="&lt;font style=&quot;font-size: 20px;&quot;&gt;Init&lt;br&gt;&lt;/font&gt;" style="rounded=0;whiteSpace=wrap;html=1;fillColor=default;" vertex="1" parent="408">
                    <mxGeometry width="120" height="50" as="geometry"/>
                </mxCell>
                <mxCell id="411" value="" style="rounded=0;whiteSpace=wrap;html=1;fillColor=default;" vertex="1" parent="414">
                    <mxGeometry x="120" y="170" width="620" height="120" as="geometry"/>
                </mxCell>
                <mxCell id="412" value="" style="rounded=0;whiteSpace=wrap;html=1;fillColor=default;" vertex="1" parent="414">
                    <mxGeometry x="120" y="290" width="620" height="120" as="geometry"/>
                </mxCell>
                <mxCell id="413" value="" style="rounded=0;whiteSpace=wrap;html=1;fillColor=default;" vertex="1" parent="414">
                    <mxGeometry x="120" y="410" width="620" height="120" as="geometry"/>
                </mxCell>
                <mxCell id="397" value="" style="group" vertex="1" connectable="0" parent="1">
                    <mxGeometry x="40" y="210" width="560" height="80" as="geometry"/>
                </mxCell>
                <mxCell id="81" value="Sharepool" style="text;html=1;align=center;verticalAlign=middle;resizable=0;points=[];autosize=1;strokeColor=none;fillColor=none;" vertex="1" parent="397">
                    <mxGeometry x="40" y="50" width="80" height="30" as="geometry"/>
                </mxCell>
                <mxCell id="199" value="" style="group" vertex="1" connectable="0" parent="397">
                    <mxGeometry width="80" height="30" as="geometry"/>
                </mxCell>
                <mxCell id="19" value="" style="rounded=0;whiteSpace=wrap;html=1;fillColor=#008a00;fontColor=#ffffff;strokeColor=#005700;" vertex="1" parent="199">
                    <mxGeometry x="40" width="10" height="30" as="geometry"/>
                </mxCell>
                <mxCell id="27" style="edgeStyle=none;jumpSize=2;html=1;entryX=0;entryY=0.5;entryDx=0;entryDy=0;startSize=2;endSize=2;" edge="1" parent="199" source="26" target="19">
                    <mxGeometry relative="1" as="geometry"/>
                </mxCell>
                <mxCell id="26" value="S1" style="text;html=1;strokeColor=none;fillColor=none;align=center;verticalAlign=middle;whiteSpace=wrap;rounded=0;" vertex="1" parent="199">
                    <mxGeometry width="30" height="30" as="geometry"/>
                </mxCell>
                <mxCell id="200" value="" style="group" vertex="1" connectable="0" parent="397">
                    <mxGeometry x="240" width="80" height="30" as="geometry"/>
                </mxCell>
                <mxCell id="201" value="" style="rounded=0;whiteSpace=wrap;html=1;fillColor=#0050ef;fontColor=#ffffff;strokeColor=#001DBC;" vertex="1" parent="200">
                    <mxGeometry x="70" width="10" height="30" as="geometry"/>
                </mxCell>
                <mxCell id="202" style="edgeStyle=none;jumpSize=2;html=1;entryX=0;entryY=0.5;entryDx=0;entryDy=0;startSize=2;endSize=2;" edge="1" parent="200" source="203" target="201">
                    <mxGeometry relative="1" as="geometry"/>
                </mxCell>
                <mxCell id="203" value="S2" style="text;html=1;strokeColor=none;fillColor=none;align=center;verticalAlign=middle;whiteSpace=wrap;rounded=0;" vertex="1" parent="200">
                    <mxGeometry width="30" height="30" as="geometry"/>
                </mxCell>
                <mxCell id="204" value="" style="group" vertex="1" connectable="0" parent="397">
                    <mxGeometry x="360" width="80" height="30" as="geometry"/>
                </mxCell>
                <mxCell id="205" value="" style="rounded=0;whiteSpace=wrap;html=1;fillColor=#fa6800;fontColor=#000000;strokeColor=#C73500;" vertex="1" parent="204">
                    <mxGeometry x="70" width="10" height="30" as="geometry"/>
                </mxCell>
                <mxCell id="206" style="edgeStyle=none;jumpSize=2;html=1;entryX=0;entryY=0.5;entryDx=0;entryDy=0;startSize=2;endSize=2;" edge="1" parent="204" source="207" target="205">
                    <mxGeometry relative="1" as="geometry"/>
                </mxCell>
                <mxCell id="207" value="S3" style="text;html=1;strokeColor=none;fillColor=none;align=center;verticalAlign=middle;whiteSpace=wrap;rounded=0;" vertex="1" parent="204">
                    <mxGeometry width="30" height="30" as="geometry"/>
                </mxCell>
                <mxCell id="208" value="" style="group" vertex="1" connectable="0" parent="397">
                    <mxGeometry x="480" width="80" height="30" as="geometry"/>
                </mxCell>
                <mxCell id="209" value="" style="rounded=0;whiteSpace=wrap;html=1;fillColor=#a20025;fontColor=#ffffff;strokeColor=#6F0000;" vertex="1" parent="208">
                    <mxGeometry x="70" width="10" height="30" as="geometry"/>
                </mxCell>
                <mxCell id="210" style="edgeStyle=none;jumpSize=2;html=1;entryX=0;entryY=0.5;entryDx=0;entryDy=0;startSize=2;endSize=2;" edge="1" parent="208" source="211" target="209">
                    <mxGeometry relative="1" as="geometry"/>
                </mxCell>
                <mxCell id="211" value="S4" style="text;html=1;strokeColor=none;fillColor=none;align=center;verticalAlign=middle;whiteSpace=wrap;rounded=0;" vertex="1" parent="208">
                    <mxGeometry width="30" height="30" as="geometry"/>
                </mxCell>
                <mxCell id="215" style="edgeStyle=none;jumpSize=2;html=1;entryX=0;entryY=0.5;entryDx=0;entryDy=0;strokeColor=default;endArrow=classicThin;endFill=1;startSize=2;endSize=2;" edge="1" parent="397" source="19" target="174">
                    <mxGeometry relative="1" as="geometry"/>
                </mxCell>
                <mxCell id="213" value="" style="group;fillColor=default;" vertex="1" connectable="0" parent="397">
                    <mxGeometry x="60" width="170" height="30" as="geometry"/>
                </mxCell>
                <mxCell id="169" value="" style="rounded=0;whiteSpace=wrap;html=1;fillColor=#60a917;container=0;fontColor=#ffffff;strokeColor=#2D7600;" vertex="1" parent="213">
                    <mxGeometry x="10" width="10" height="30" as="geometry"/>
                </mxCell>
                <mxCell id="170" value="" style="rounded=0;whiteSpace=wrap;html=1;fillColor=#60a917;container=0;fontColor=#ffffff;strokeColor=#2D7600;" vertex="1" parent="213">
                    <mxGeometry x="25" width="10" height="30" as="geometry"/>
                </mxCell>
                <mxCell id="181" style="edgeStyle=none;jumpSize=2;html=1;entryX=0;entryY=0.5;entryDx=0;entryDy=0;strokeColor=default;endArrow=classicThin;endFill=1;startSize=2;endSize=2;" edge="1" parent="213" source="169" target="170">
                    <mxGeometry relative="1" as="geometry"/>
                </mxCell>
                <mxCell id="180" style="edgeStyle=none;jumpSize=2;html=1;entryX=0;entryY=0.5;entryDx=0;entryDy=0;strokeColor=default;endArrow=classicThin;endFill=1;startSize=2;endSize=2;" edge="1" parent="213" source="174" target="169">
                    <mxGeometry relative="1" as="geometry"/>
                </mxCell>
                <mxCell id="174" value="" style="rounded=0;whiteSpace=wrap;html=1;fillColor=#60a917;container=0;fontColor=#ffffff;strokeColor=#2D7600;" vertex="1" parent="213">
                    <mxGeometry width="6" height="30" as="geometry"/>
                </mxCell>
                <mxCell id="175" value="" style="rounded=0;whiteSpace=wrap;html=1;fillColor=#60a917;container=0;fontColor=#ffffff;strokeColor=#2D7600;" vertex="1" parent="213">
                    <mxGeometry x="40" width="16" height="30" as="geometry"/>
                </mxCell>
                <mxCell id="182" style="edgeStyle=none;jumpSize=2;html=1;entryX=0;entryY=0.5;entryDx=0;entryDy=0;strokeColor=default;endArrow=classicThin;endFill=1;startSize=2;endSize=2;" edge="1" parent="213" source="170" target="175">
                    <mxGeometry relative="1" as="geometry"/>
                </mxCell>
                <mxCell id="176" value="" style="rounded=0;whiteSpace=wrap;html=1;fillColor=#60a917;container=0;fontColor=#ffffff;strokeColor=#2D7600;" vertex="1" parent="213">
                    <mxGeometry x="78" width="16" height="30" as="geometry"/>
                </mxCell>
                <mxCell id="177" style="edgeStyle=none;jumpSize=2;html=1;entryX=0;entryY=0.5;entryDx=0;entryDy=0;startSize=2;endSize=2;strokeColor=default;dashed=1;dashPattern=1 1;endArrow=none;endFill=0;" edge="1" parent="213" source="175" target="176">
                    <mxGeometry relative="1" as="geometry"/>
                </mxCell>
                <mxCell id="178" value="" style="rounded=0;whiteSpace=wrap;html=1;fillColor=#60a917;container=0;fontColor=#ffffff;strokeColor=#2D7600;" vertex="1" parent="213">
                    <mxGeometry x="100" width="20" height="30" as="geometry"/>
                </mxCell>
                <mxCell id="183" style="edgeStyle=none;jumpSize=2;html=1;entryX=0;entryY=0.5;entryDx=0;entryDy=0;strokeColor=default;endArrow=classicThin;endFill=1;startSize=2;endSize=2;" edge="1" parent="213" source="176" target="178">
                    <mxGeometry relative="1" as="geometry"/>
                </mxCell>
                <mxCell id="179" value="" style="rounded=0;whiteSpace=wrap;html=1;fillColor=#60a917;container=0;fontColor=#ffffff;strokeColor=#2D7600;" vertex="1" parent="213">
                    <mxGeometry x="125" width="40" height="30" as="geometry"/>
                </mxCell>
                <mxCell id="184" style="edgeStyle=none;jumpSize=2;html=1;entryX=0;entryY=0.5;entryDx=0;entryDy=0;strokeColor=default;endArrow=classicThin;endFill=1;startSize=2;endSize=2;" edge="1" parent="213" source="178" target="179">
                    <mxGeometry relative="1" as="geometry"/>
                </mxCell>
                <mxCell id="217" value="" style="group" vertex="1" connectable="0" parent="397">
                    <mxGeometry x="140" y="50" width="170" height="30" as="geometry"/>
                </mxCell>
                <mxCell id="218" value="" style="rounded=0;whiteSpace=wrap;html=1;fillColor=#60a917;container=0;fontColor=#ffffff;strokeColor=#2D7600;" vertex="1" parent="217">
                    <mxGeometry x="10" width="10" height="30" as="geometry"/>
                </mxCell>
                <mxCell id="219" value="" style="rounded=0;whiteSpace=wrap;html=1;fillColor=#60a917;container=0;fontColor=#ffffff;strokeColor=#2D7600;" vertex="1" parent="217">
                    <mxGeometry x="25" width="10" height="30" as="geometry"/>
                </mxCell>
                <mxCell id="220" style="edgeStyle=none;jumpSize=2;html=1;entryX=0;entryY=0.5;entryDx=0;entryDy=0;strokeColor=default;endArrow=classicThin;endFill=1;startSize=2;endSize=2;" edge="1" parent="217" source="218" target="219">
                    <mxGeometry relative="1" as="geometry"/>
                </mxCell>
                <mxCell id="221" style="edgeStyle=none;jumpSize=2;html=1;entryX=0;entryY=0.5;entryDx=0;entryDy=0;strokeColor=default;endArrow=classicThin;endFill=1;startSize=2;endSize=2;" edge="1" parent="217" source="222" target="218">
                    <mxGeometry relative="1" as="geometry"/>
                </mxCell>
                <mxCell id="222" value="" style="rounded=0;whiteSpace=wrap;html=1;fillColor=#60a917;container=0;fontColor=#ffffff;strokeColor=#2D7600;" vertex="1" parent="217">
                    <mxGeometry width="6" height="30" as="geometry"/>
                </mxCell>
                <mxCell id="223" value="" style="rounded=0;whiteSpace=wrap;html=1;fillColor=#60a917;container=0;fontColor=#ffffff;strokeColor=#2D7600;" vertex="1" parent="217">
                    <mxGeometry x="40" width="16" height="30" as="geometry"/>
                </mxCell>
                <mxCell id="224" style="edgeStyle=none;jumpSize=2;html=1;entryX=0;entryY=0.5;entryDx=0;entryDy=0;strokeColor=default;endArrow=classicThin;endFill=1;startSize=2;endSize=2;" edge="1" parent="217" source="219" target="223">
                    <mxGeometry relative="1" as="geometry"/>
                </mxCell>
                <mxCell id="225" value="" style="rounded=0;whiteSpace=wrap;html=1;fillColor=#60a917;container=0;fontColor=#ffffff;strokeColor=#2D7600;" vertex="1" parent="217">
                    <mxGeometry x="78" width="16" height="30" as="geometry"/>
                </mxCell>
                <mxCell id="226" style="edgeStyle=none;jumpSize=2;html=1;entryX=0;entryY=0.5;entryDx=0;entryDy=0;startSize=2;endSize=2;strokeColor=default;dashed=1;dashPattern=1 1;endArrow=none;endFill=0;" edge="1" parent="217" source="223" target="225">
                    <mxGeometry relative="1" as="geometry"/>
                </mxCell>
                <mxCell id="227" value="" style="rounded=0;whiteSpace=wrap;html=1;fillColor=#60a917;container=0;fontColor=#ffffff;strokeColor=#2D7600;" vertex="1" parent="217">
                    <mxGeometry x="100" width="20" height="30" as="geometry"/>
                </mxCell>
                <mxCell id="228" style="edgeStyle=none;jumpSize=2;html=1;entryX=0;entryY=0.5;entryDx=0;entryDy=0;strokeColor=default;endArrow=classicThin;endFill=1;startSize=2;endSize=2;" edge="1" parent="217" source="225" target="227">
                    <mxGeometry relative="1" as="geometry"/>
                </mxCell>
                <mxCell id="229" value="" style="rounded=0;whiteSpace=wrap;html=1;fillColor=#60a917;container=0;fontColor=#ffffff;strokeColor=#2D7600;" vertex="1" parent="217">
                    <mxGeometry x="126" width="40" height="30" as="geometry"/>
                </mxCell>
                <mxCell id="230" style="edgeStyle=none;jumpSize=2;html=1;entryX=0;entryY=0.5;entryDx=0;entryDy=0;strokeColor=default;endArrow=classicThin;endFill=1;startSize=2;endSize=2;" edge="1" parent="217" source="227" target="229">
                    <mxGeometry relative="1" as="geometry"/>
                </mxCell>
                <mxCell id="273" style="edgeStyle=none;jumpSize=2;html=1;entryX=0;entryY=0.5;entryDx=0;entryDy=0;strokeColor=default;endArrow=classicThin;endFill=1;startSize=2;endSize=2;" edge="1" parent="397" source="81" target="222">
                    <mxGeometry relative="1" as="geometry"/>
                </mxCell>
                <mxCell id="398" value="" style="group" vertex="1" connectable="0" parent="1">
                    <mxGeometry x="40" y="330" width="560" height="80" as="geometry"/>
                </mxCell>
                <mxCell id="131" value="S1" style="text;html=1;strokeColor=none;fillColor=none;align=center;verticalAlign=middle;whiteSpace=wrap;rounded=0;" vertex="1" parent="398">
                    <mxGeometry width="30" height="30" as="geometry"/>
                </mxCell>
                <mxCell id="132" value="" style="rounded=0;whiteSpace=wrap;html=1;fillColor=#008a00;fontColor=#ffffff;strokeColor=#005700;" vertex="1" parent="398">
                    <mxGeometry x="70" width="10" height="30" as="geometry"/>
                </mxCell>
                <mxCell id="130" style="edgeStyle=none;jumpSize=2;html=1;entryX=0;entryY=0.5;entryDx=0;entryDy=0;startSize=2;endSize=2;" edge="1" parent="398" source="131" target="132">
                    <mxGeometry relative="1" as="geometry"/>
                </mxCell>
                <mxCell id="139" value="Sharepool" style="text;html=1;align=center;verticalAlign=middle;resizable=0;points=[];autosize=1;strokeColor=none;fillColor=none;" vertex="1" parent="398">
                    <mxGeometry x="40" y="50" width="80" height="30" as="geometry"/>
                </mxCell>
                <mxCell id="231" value="" style="group" vertex="1" connectable="0" parent="398">
                    <mxGeometry x="140" y="50" width="170" height="30" as="geometry"/>
                </mxCell>
                <mxCell id="232" value="" style="rounded=0;whiteSpace=wrap;html=1;fillColor=#1ba1e2;container=0;fontColor=#ffffff;strokeColor=#006EAF;" vertex="1" parent="231">
                    <mxGeometry x="10" width="10" height="30" as="geometry"/>
                </mxCell>
                <mxCell id="233" value="" style="rounded=0;whiteSpace=wrap;html=1;fillColor=#1ba1e2;container=0;fontColor=#ffffff;strokeColor=#006EAF;" vertex="1" parent="231">
                    <mxGeometry x="25" width="10" height="30" as="geometry"/>
                </mxCell>
                <mxCell id="234" style="edgeStyle=none;jumpSize=2;html=1;entryX=0;entryY=0.5;entryDx=0;entryDy=0;strokeColor=default;endArrow=classicThin;endFill=1;startSize=2;endSize=2;" edge="1" parent="231" source="232" target="233">
                    <mxGeometry relative="1" as="geometry"/>
                </mxCell>
                <mxCell id="235" style="edgeStyle=none;jumpSize=2;html=1;entryX=0;entryY=0.5;entryDx=0;entryDy=0;strokeColor=default;endArrow=classicThin;endFill=1;startSize=2;endSize=2;" edge="1" parent="231" source="236" target="232">
                    <mxGeometry relative="1" as="geometry"/>
                </mxCell>
                <mxCell id="236" value="" style="rounded=0;whiteSpace=wrap;html=1;fillColor=#1ba1e2;container=0;fontColor=#ffffff;strokeColor=#006EAF;" vertex="1" parent="231">
                    <mxGeometry width="6" height="30" as="geometry"/>
                </mxCell>
                <mxCell id="237" value="" style="rounded=0;whiteSpace=wrap;html=1;fillColor=#1ba1e2;container=0;fontColor=#ffffff;strokeColor=#006EAF;" vertex="1" parent="231">
                    <mxGeometry x="40" width="16" height="30" as="geometry"/>
                </mxCell>
                <mxCell id="238" style="edgeStyle=none;jumpSize=2;html=1;entryX=0;entryY=0.5;entryDx=0;entryDy=0;strokeColor=default;endArrow=classicThin;endFill=1;startSize=2;endSize=2;" edge="1" parent="231" source="233" target="237">
                    <mxGeometry relative="1" as="geometry"/>
                </mxCell>
                <mxCell id="239" value="" style="rounded=0;whiteSpace=wrap;html=1;fillColor=#1ba1e2;container=0;fontColor=#ffffff;strokeColor=#006EAF;" vertex="1" parent="231">
                    <mxGeometry x="78" width="16" height="30" as="geometry"/>
                </mxCell>
                <mxCell id="240" style="edgeStyle=none;jumpSize=2;html=1;entryX=0;entryY=0.5;entryDx=0;entryDy=0;startSize=2;endSize=2;strokeColor=default;dashed=1;dashPattern=1 1;endArrow=none;endFill=0;" edge="1" parent="231" source="237" target="239">
                    <mxGeometry relative="1" as="geometry"/>
                </mxCell>
                <mxCell id="241" value="" style="rounded=0;whiteSpace=wrap;html=1;fillColor=#1ba1e2;container=0;fontColor=#ffffff;strokeColor=#006EAF;" vertex="1" parent="231">
                    <mxGeometry x="100" width="20" height="30" as="geometry"/>
                </mxCell>
                <mxCell id="242" style="edgeStyle=none;jumpSize=2;html=1;entryX=0;entryY=0.5;entryDx=0;entryDy=0;strokeColor=default;endArrow=classicThin;endFill=1;startSize=2;endSize=2;" edge="1" parent="231" source="239" target="241">
                    <mxGeometry relative="1" as="geometry"/>
                </mxCell>
                <mxCell id="243" value="" style="rounded=0;whiteSpace=wrap;html=1;fillColor=#1ba1e2;container=0;fontColor=#ffffff;strokeColor=#006EAF;" vertex="1" parent="231">
                    <mxGeometry x="126" width="40" height="30" as="geometry"/>
                </mxCell>
                <mxCell id="244" style="edgeStyle=none;jumpSize=2;html=1;entryX=0;entryY=0.5;entryDx=0;entryDy=0;strokeColor=default;endArrow=classicThin;endFill=1;startSize=2;endSize=2;" edge="1" parent="231" source="241" target="243">
                    <mxGeometry relative="1" as="geometry"/>
                </mxCell>
                <mxCell id="342" style="edgeStyle=none;jumpSize=2;html=1;entryX=0;entryY=0.5;entryDx=0;entryDy=0;strokeColor=default;endArrow=classicThin;endFill=1;startSize=2;endSize=2;" edge="1" parent="398" source="139" target="236">
                    <mxGeometry relative="1" as="geometry"/>
                </mxCell>
                <mxCell id="274" value="" style="group" vertex="1" connectable="0" parent="398">
                    <mxGeometry x="120" width="80" height="30" as="geometry"/>
                </mxCell>
                <mxCell id="275" value="" style="rounded=0;whiteSpace=wrap;html=1;fillColor=#0050ef;fontColor=#ffffff;strokeColor=#001DBC;" vertex="1" parent="274">
                    <mxGeometry x="40" width="10" height="30" as="geometry"/>
                </mxCell>
                <mxCell id="276" style="edgeStyle=none;jumpSize=2;html=1;entryX=0;entryY=0.5;entryDx=0;entryDy=0;startSize=2;endSize=2;" edge="1" parent="274" source="277" target="275">
                    <mxGeometry relative="1" as="geometry"/>
                </mxCell>
                <mxCell id="277" value="S2" style="text;html=1;strokeColor=none;fillColor=none;align=center;verticalAlign=middle;whiteSpace=wrap;rounded=0;" vertex="1" parent="274">
                    <mxGeometry width="30" height="30" as="geometry"/>
                </mxCell>
                <mxCell id="278" value="" style="group" vertex="1" connectable="0" parent="398">
                    <mxGeometry x="360" width="80" height="30" as="geometry"/>
                </mxCell>
                <mxCell id="279" value="" style="rounded=0;whiteSpace=wrap;html=1;fillColor=#fa6800;fontColor=#000000;strokeColor=#C73500;" vertex="1" parent="278">
                    <mxGeometry x="70" width="10" height="30" as="geometry"/>
                </mxCell>
                <mxCell id="280" style="edgeStyle=none;jumpSize=2;html=1;entryX=0;entryY=0.5;entryDx=0;entryDy=0;startSize=2;endSize=2;" edge="1" parent="278" source="281" target="279">
                    <mxGeometry relative="1" as="geometry"/>
                </mxCell>
                <mxCell id="281" value="S3" style="text;html=1;strokeColor=none;fillColor=none;align=center;verticalAlign=middle;whiteSpace=wrap;rounded=0;" vertex="1" parent="278">
                    <mxGeometry width="30" height="30" as="geometry"/>
                </mxCell>
                <mxCell id="282" value="" style="group" vertex="1" connectable="0" parent="398">
                    <mxGeometry x="480" width="80" height="30" as="geometry"/>
                </mxCell>
                <mxCell id="283" value="" style="rounded=0;whiteSpace=wrap;html=1;fillColor=#a20025;fontColor=#ffffff;strokeColor=#6F0000;" vertex="1" parent="282">
                    <mxGeometry x="70" width="10" height="30" as="geometry"/>
                </mxCell>
                <mxCell id="284" style="edgeStyle=none;jumpSize=2;html=1;entryX=0;entryY=0.5;entryDx=0;entryDy=0;startSize=2;endSize=2;" edge="1" parent="282" source="285" target="283">
                    <mxGeometry relative="1" as="geometry"/>
                </mxCell>
                <mxCell id="285" value="S4" style="text;html=1;strokeColor=none;fillColor=none;align=center;verticalAlign=middle;whiteSpace=wrap;rounded=0;" vertex="1" parent="282">
                    <mxGeometry width="30" height="30" as="geometry"/>
                </mxCell>
                <mxCell id="326" value="" style="group" vertex="1" connectable="0" parent="398">
                    <mxGeometry x="180" width="170" height="30" as="geometry"/>
                </mxCell>
                <mxCell id="327" value="" style="rounded=0;whiteSpace=wrap;html=1;fillColor=#1ba1e2;container=0;fontColor=#ffffff;strokeColor=#006EAF;" vertex="1" parent="326">
                    <mxGeometry x="10" width="10" height="30" as="geometry"/>
                </mxCell>
                <mxCell id="328" value="" style="rounded=0;whiteSpace=wrap;html=1;fillColor=#1ba1e2;container=0;fontColor=#ffffff;strokeColor=#006EAF;" vertex="1" parent="326">
                    <mxGeometry x="25" width="10" height="30" as="geometry"/>
                </mxCell>
                <mxCell id="329" style="edgeStyle=none;jumpSize=2;html=1;entryX=0;entryY=0.5;entryDx=0;entryDy=0;strokeColor=default;endArrow=classicThin;endFill=1;startSize=2;endSize=2;" edge="1" parent="326" source="327" target="328">
                    <mxGeometry relative="1" as="geometry"/>
                </mxCell>
                <mxCell id="330" style="edgeStyle=none;jumpSize=2;html=1;entryX=0;entryY=0.5;entryDx=0;entryDy=0;strokeColor=default;endArrow=classicThin;endFill=1;startSize=2;endSize=2;" edge="1" parent="326" source="331" target="327">
                    <mxGeometry relative="1" as="geometry"/>
                </mxCell>
                <mxCell id="331" value="" style="rounded=0;whiteSpace=wrap;html=1;fillColor=#1ba1e2;container=0;fontColor=#ffffff;strokeColor=#006EAF;" vertex="1" parent="326">
                    <mxGeometry width="6" height="30" as="geometry"/>
                </mxCell>
                <mxCell id="332" value="" style="rounded=0;whiteSpace=wrap;html=1;fillColor=#1ba1e2;container=0;fontColor=#ffffff;strokeColor=#006EAF;" vertex="1" parent="326">
                    <mxGeometry x="40" width="16" height="30" as="geometry"/>
                </mxCell>
                <mxCell id="333" style="edgeStyle=none;jumpSize=2;html=1;entryX=0;entryY=0.5;entryDx=0;entryDy=0;strokeColor=default;endArrow=classicThin;endFill=1;startSize=2;endSize=2;" edge="1" parent="326" source="328" target="332">
                    <mxGeometry relative="1" as="geometry"/>
                </mxCell>
                <mxCell id="334" value="" style="rounded=0;whiteSpace=wrap;html=1;fillColor=#1ba1e2;container=0;fontColor=#ffffff;strokeColor=#006EAF;" vertex="1" parent="326">
                    <mxGeometry x="78" width="16" height="30" as="geometry"/>
                </mxCell>
                <mxCell id="335" style="edgeStyle=none;jumpSize=2;html=1;entryX=0;entryY=0.5;entryDx=0;entryDy=0;startSize=2;endSize=2;strokeColor=default;dashed=1;dashPattern=1 1;endArrow=none;endFill=0;" edge="1" parent="326" source="332" target="334">
                    <mxGeometry relative="1" as="geometry"/>
                </mxCell>
                <mxCell id="336" value="" style="rounded=0;whiteSpace=wrap;html=1;fillColor=#1ba1e2;container=0;fontColor=#ffffff;strokeColor=#006EAF;" vertex="1" parent="326">
                    <mxGeometry x="100" width="20" height="30" as="geometry"/>
                </mxCell>
                <mxCell id="337" style="edgeStyle=none;jumpSize=2;html=1;entryX=0;entryY=0.5;entryDx=0;entryDy=0;strokeColor=default;endArrow=classicThin;endFill=1;startSize=2;endSize=2;" edge="1" parent="326" source="334" target="336">
                    <mxGeometry relative="1" as="geometry"/>
                </mxCell>
                <mxCell id="338" value="" style="rounded=0;whiteSpace=wrap;html=1;fillColor=#1ba1e2;container=0;fontColor=#ffffff;strokeColor=#006EAF;" vertex="1" parent="326">
                    <mxGeometry x="126" width="40" height="30" as="geometry"/>
                </mxCell>
                <mxCell id="339" style="edgeStyle=none;jumpSize=2;html=1;entryX=0;entryY=0.5;entryDx=0;entryDy=0;strokeColor=default;endArrow=classicThin;endFill=1;startSize=2;endSize=2;" edge="1" parent="326" source="336" target="338">
                    <mxGeometry relative="1" as="geometry"/>
                </mxCell>
                <mxCell id="341" style="edgeStyle=none;jumpSize=2;html=1;entryX=0;entryY=0.5;entryDx=0;entryDy=0;strokeColor=default;endArrow=classicThin;endFill=1;startSize=2;endSize=2;" edge="1" parent="398" source="275" target="331">
                    <mxGeometry relative="1" as="geometry"/>
                </mxCell>
                <mxCell id="399" value="" style="group" vertex="1" connectable="0" parent="1">
                    <mxGeometry x="40" y="450" width="560" height="80" as="geometry"/>
                </mxCell>
                <mxCell id="84" value="" style="group" vertex="1" connectable="0" parent="399">
                    <mxGeometry width="130" height="30" as="geometry"/>
                </mxCell>
                <mxCell id="105" style="edgeStyle=none;jumpSize=2;html=1;entryX=0;entryY=0.5;entryDx=0;entryDy=0;startSize=2;endSize=2;" edge="1" parent="84" source="85" target="101">
                    <mxGeometry relative="1" as="geometry"/>
                </mxCell>
                <mxCell id="85" value="S1" style="text;html=1;strokeColor=none;fillColor=none;align=center;verticalAlign=middle;whiteSpace=wrap;rounded=0;" vertex="1" parent="84">
                    <mxGeometry width="30" height="30" as="geometry"/>
                </mxCell>
                <mxCell id="101" value="" style="rounded=0;whiteSpace=wrap;html=1;fillColor=#008a00;fontColor=#ffffff;strokeColor=#005700;" vertex="1" parent="84">
                    <mxGeometry x="70" width="10" height="30" as="geometry"/>
                </mxCell>
                <mxCell id="129" value="Sharepool" style="text;html=1;align=center;verticalAlign=middle;resizable=0;points=[];autosize=1;strokeColor=none;fillColor=none;" vertex="1" parent="399">
                    <mxGeometry x="40" y="50" width="80" height="30" as="geometry"/>
                </mxCell>
                <mxCell id="245" value="" style="group" vertex="1" connectable="0" parent="399">
                    <mxGeometry x="140" y="50" width="170" height="30" as="geometry"/>
                </mxCell>
                <mxCell id="246" value="" style="rounded=0;whiteSpace=wrap;html=1;fillColor=#e3c800;container=0;fontColor=#000000;strokeColor=#B09500;" vertex="1" parent="245">
                    <mxGeometry x="10" width="10" height="30" as="geometry"/>
                </mxCell>
                <mxCell id="247" value="" style="rounded=0;whiteSpace=wrap;html=1;fillColor=#e3c800;container=0;fontColor=#000000;strokeColor=#B09500;" vertex="1" parent="245">
                    <mxGeometry x="25" width="10" height="30" as="geometry"/>
                </mxCell>
                <mxCell id="248" style="edgeStyle=none;jumpSize=2;html=1;entryX=0;entryY=0.5;entryDx=0;entryDy=0;strokeColor=default;endArrow=classicThin;endFill=1;startSize=2;endSize=2;" edge="1" parent="245" source="246" target="247">
                    <mxGeometry relative="1" as="geometry"/>
                </mxCell>
                <mxCell id="249" style="edgeStyle=none;jumpSize=2;html=1;entryX=0;entryY=0.5;entryDx=0;entryDy=0;strokeColor=default;endArrow=classicThin;endFill=1;startSize=2;endSize=2;" edge="1" parent="245" source="250" target="246">
                    <mxGeometry relative="1" as="geometry"/>
                </mxCell>
                <mxCell id="250" value="" style="rounded=0;whiteSpace=wrap;html=1;fillColor=#e3c800;container=0;fontColor=#000000;strokeColor=#B09500;" vertex="1" parent="245">
                    <mxGeometry width="6" height="30" as="geometry"/>
                </mxCell>
                <mxCell id="251" value="" style="rounded=0;whiteSpace=wrap;html=1;fillColor=#e3c800;container=0;fontColor=#000000;strokeColor=#B09500;" vertex="1" parent="245">
                    <mxGeometry x="40" width="16" height="30" as="geometry"/>
                </mxCell>
                <mxCell id="252" style="edgeStyle=none;jumpSize=2;html=1;entryX=0;entryY=0.5;entryDx=0;entryDy=0;strokeColor=default;endArrow=classicThin;endFill=1;startSize=2;endSize=2;" edge="1" parent="245" source="247" target="251">
                    <mxGeometry relative="1" as="geometry"/>
                </mxCell>
                <mxCell id="253" value="" style="rounded=0;whiteSpace=wrap;html=1;fillColor=#e3c800;container=0;fontColor=#000000;strokeColor=#B09500;" vertex="1" parent="245">
                    <mxGeometry x="78" width="16" height="30" as="geometry"/>
                </mxCell>
                <mxCell id="254" style="edgeStyle=none;jumpSize=2;html=1;entryX=0;entryY=0.5;entryDx=0;entryDy=0;startSize=2;endSize=2;strokeColor=default;dashed=1;dashPattern=1 1;endArrow=none;endFill=0;" edge="1" parent="245" source="251" target="253">
                    <mxGeometry relative="1" as="geometry"/>
                </mxCell>
                <mxCell id="255" value="" style="rounded=0;whiteSpace=wrap;html=1;fillColor=#e3c800;container=0;fontColor=#000000;strokeColor=#B09500;" vertex="1" parent="245">
                    <mxGeometry x="100" width="20" height="30" as="geometry"/>
                </mxCell>
                <mxCell id="256" style="edgeStyle=none;jumpSize=2;html=1;entryX=0;entryY=0.5;entryDx=0;entryDy=0;strokeColor=default;endArrow=classicThin;endFill=1;startSize=2;endSize=2;" edge="1" parent="245" source="253" target="255">
                    <mxGeometry relative="1" as="geometry"/>
                </mxCell>
                <mxCell id="257" value="" style="rounded=0;whiteSpace=wrap;html=1;fillColor=#e3c800;container=0;fontColor=#000000;strokeColor=#B09500;" vertex="1" parent="245">
                    <mxGeometry x="126" width="40" height="30" as="geometry"/>
                </mxCell>
                <mxCell id="258" style="edgeStyle=none;jumpSize=2;html=1;entryX=0;entryY=0.5;entryDx=0;entryDy=0;strokeColor=default;endArrow=classicThin;endFill=1;startSize=2;endSize=2;" edge="1" parent="245" source="255" target="257">
                    <mxGeometry relative="1" as="geometry"/>
                </mxCell>
                <mxCell id="358" style="edgeStyle=none;jumpSize=2;html=1;entryX=0;entryY=0.5;entryDx=0;entryDy=0;strokeColor=default;endArrow=classicThin;endFill=1;startSize=2;endSize=2;" edge="1" parent="399" source="129" target="250">
                    <mxGeometry relative="1" as="geometry"/>
                </mxCell>
                <mxCell id="286" value="" style="group" vertex="1" connectable="0" parent="399">
                    <mxGeometry x="120" width="80" height="30" as="geometry"/>
                </mxCell>
                <mxCell id="287" value="" style="rounded=0;whiteSpace=wrap;html=1;fillColor=#0050ef;fontColor=#ffffff;strokeColor=#001DBC;" vertex="1" parent="286">
                    <mxGeometry x="70" width="10" height="30" as="geometry"/>
                </mxCell>
                <mxCell id="288" style="edgeStyle=none;jumpSize=2;html=1;entryX=0;entryY=0.5;entryDx=0;entryDy=0;startSize=2;endSize=2;" edge="1" parent="286" source="289" target="287">
                    <mxGeometry relative="1" as="geometry"/>
                </mxCell>
                <mxCell id="289" value="S2" style="text;html=1;strokeColor=none;fillColor=none;align=center;verticalAlign=middle;whiteSpace=wrap;rounded=0;" vertex="1" parent="286">
                    <mxGeometry width="30" height="30" as="geometry"/>
                </mxCell>
                <mxCell id="290" value="" style="group" vertex="1" connectable="0" parent="399">
                    <mxGeometry x="240" width="80" height="30" as="geometry"/>
                </mxCell>
                <mxCell id="291" value="" style="rounded=0;whiteSpace=wrap;html=1;fillColor=#fa6800;fontColor=#000000;strokeColor=#C73500;" vertex="1" parent="290">
                    <mxGeometry x="40" width="10" height="30" as="geometry"/>
                </mxCell>
                <mxCell id="292" style="edgeStyle=none;jumpSize=2;html=1;entryX=0;entryY=0.5;entryDx=0;entryDy=0;startSize=2;endSize=2;" edge="1" parent="290" source="293" target="291">
                    <mxGeometry relative="1" as="geometry"/>
                </mxCell>
                <mxCell id="293" value="S3" style="text;html=1;strokeColor=none;fillColor=none;align=center;verticalAlign=middle;whiteSpace=wrap;rounded=0;" vertex="1" parent="290">
                    <mxGeometry width="30" height="30" as="geometry"/>
                </mxCell>
                <mxCell id="294" value="" style="group" vertex="1" connectable="0" parent="399">
                    <mxGeometry x="480" width="80" height="30" as="geometry"/>
                </mxCell>
                <mxCell id="295" value="" style="rounded=0;whiteSpace=wrap;html=1;fillColor=#a20025;fontColor=#ffffff;strokeColor=#6F0000;" vertex="1" parent="294">
                    <mxGeometry x="70" width="10" height="30" as="geometry"/>
                </mxCell>
                <mxCell id="296" style="edgeStyle=none;jumpSize=2;html=1;entryX=0;entryY=0.5;entryDx=0;entryDy=0;startSize=2;endSize=2;" edge="1" parent="294" source="297" target="295">
                    <mxGeometry relative="1" as="geometry"/>
                </mxCell>
                <mxCell id="297" value="S4" style="text;html=1;strokeColor=none;fillColor=none;align=center;verticalAlign=middle;whiteSpace=wrap;rounded=0;" vertex="1" parent="294">
                    <mxGeometry width="30" height="30" as="geometry"/>
                </mxCell>
                <mxCell id="357" style="edgeStyle=none;jumpSize=2;html=1;entryX=0;entryY=0.5;entryDx=0;entryDy=0;strokeColor=default;endArrow=classicThin;endFill=1;startSize=2;endSize=2;" edge="1" parent="399" source="291" target="348">
                    <mxGeometry relative="1" as="geometry"/>
                </mxCell>
                <mxCell id="343" value="" style="group" vertex="1" connectable="0" parent="399">
                    <mxGeometry x="300" width="170" height="30" as="geometry"/>
                </mxCell>
                <mxCell id="344" value="" style="rounded=0;whiteSpace=wrap;html=1;fillColor=#e3c800;container=0;fontColor=#000000;strokeColor=#B09500;" vertex="1" parent="343">
                    <mxGeometry x="10" width="10" height="30" as="geometry"/>
                </mxCell>
                <mxCell id="345" value="" style="rounded=0;whiteSpace=wrap;html=1;fillColor=#e3c800;container=0;fontColor=#000000;strokeColor=#B09500;" vertex="1" parent="343">
                    <mxGeometry x="25" width="10" height="30" as="geometry"/>
                </mxCell>
                <mxCell id="346" style="edgeStyle=none;jumpSize=2;html=1;entryX=0;entryY=0.5;entryDx=0;entryDy=0;strokeColor=default;endArrow=classicThin;endFill=1;startSize=2;endSize=2;" edge="1" parent="343" source="344" target="345">
                    <mxGeometry relative="1" as="geometry"/>
                </mxCell>
                <mxCell id="347" style="edgeStyle=none;jumpSize=2;html=1;entryX=0;entryY=0.5;entryDx=0;entryDy=0;strokeColor=default;endArrow=classicThin;endFill=1;startSize=2;endSize=2;" edge="1" parent="343" source="348" target="344">
                    <mxGeometry relative="1" as="geometry"/>
                </mxCell>
                <mxCell id="348" value="" style="rounded=0;whiteSpace=wrap;html=1;fillColor=#e3c800;container=0;fontColor=#000000;strokeColor=#B09500;" vertex="1" parent="343">
                    <mxGeometry width="6" height="30" as="geometry"/>
                </mxCell>
                <mxCell id="349" value="" style="rounded=0;whiteSpace=wrap;html=1;fillColor=#e3c800;container=0;fontColor=#000000;strokeColor=#B09500;" vertex="1" parent="343">
                    <mxGeometry x="40" width="16" height="30" as="geometry"/>
                </mxCell>
                <mxCell id="350" style="edgeStyle=none;jumpSize=2;html=1;entryX=0;entryY=0.5;entryDx=0;entryDy=0;strokeColor=default;endArrow=classicThin;endFill=1;startSize=2;endSize=2;" edge="1" parent="343" source="345" target="349">
                    <mxGeometry relative="1" as="geometry"/>
                </mxCell>
                <mxCell id="351" value="" style="rounded=0;whiteSpace=wrap;html=1;fillColor=#e3c800;container=0;fontColor=#000000;strokeColor=#B09500;" vertex="1" parent="343">
                    <mxGeometry x="78" width="16" height="30" as="geometry"/>
                </mxCell>
                <mxCell id="352" style="edgeStyle=none;jumpSize=2;html=1;entryX=0;entryY=0.5;entryDx=0;entryDy=0;startSize=2;endSize=2;strokeColor=default;dashed=1;dashPattern=1 1;endArrow=none;endFill=0;" edge="1" parent="343" source="349" target="351">
                    <mxGeometry relative="1" as="geometry"/>
                </mxCell>
                <mxCell id="353" value="" style="rounded=0;whiteSpace=wrap;html=1;fillColor=#e3c800;container=0;fontColor=#000000;strokeColor=#B09500;" vertex="1" parent="343">
                    <mxGeometry x="100" width="20" height="30" as="geometry"/>
                </mxCell>
                <mxCell id="354" style="edgeStyle=none;jumpSize=2;html=1;entryX=0;entryY=0.5;entryDx=0;entryDy=0;strokeColor=default;endArrow=classicThin;endFill=1;startSize=2;endSize=2;" edge="1" parent="343" source="351" target="353">
                    <mxGeometry relative="1" as="geometry"/>
                </mxCell>
                <mxCell id="355" value="" style="rounded=0;whiteSpace=wrap;html=1;fillColor=#e3c800;container=0;fontColor=#000000;strokeColor=#B09500;" vertex="1" parent="343">
                    <mxGeometry x="126" width="40" height="30" as="geometry"/>
                </mxCell>
                <mxCell id="356" style="edgeStyle=none;jumpSize=2;html=1;entryX=0;entryY=0.5;entryDx=0;entryDy=0;strokeColor=default;endArrow=classicThin;endFill=1;startSize=2;endSize=2;" edge="1" parent="343" source="353" target="355">
                    <mxGeometry relative="1" as="geometry"/>
                </mxCell>
                <mxCell id="402" value="" style="group" vertex="1" connectable="0" parent="1">
                    <mxGeometry x="40" y="570" width="590" height="80" as="geometry"/>
                </mxCell>
                <mxCell id="259" value="" style="group" vertex="1" connectable="0" parent="402">
                    <mxGeometry x="140" y="50" width="170" height="30" as="geometry"/>
                </mxCell>
                <mxCell id="260" value="" style="rounded=0;whiteSpace=wrap;html=1;fillColor=#d80073;container=0;fontColor=#ffffff;strokeColor=#A50040;" vertex="1" parent="259">
                    <mxGeometry x="10" width="10" height="30" as="geometry"/>
                </mxCell>
                <mxCell id="261" value="" style="rounded=0;whiteSpace=wrap;html=1;fillColor=#d80073;container=0;fontColor=#ffffff;strokeColor=#A50040;" vertex="1" parent="259">
                    <mxGeometry x="25" width="10" height="30" as="geometry"/>
                </mxCell>
                <mxCell id="262" style="edgeStyle=none;jumpSize=2;html=1;entryX=0;entryY=0.5;entryDx=0;entryDy=0;strokeColor=default;endArrow=classicThin;endFill=1;startSize=2;endSize=2;" edge="1" parent="259" source="260" target="261">
                    <mxGeometry relative="1" as="geometry"/>
                </mxCell>
                <mxCell id="263" style="edgeStyle=none;jumpSize=2;html=1;entryX=0;entryY=0.5;entryDx=0;entryDy=0;strokeColor=default;endArrow=classicThin;endFill=1;startSize=2;endSize=2;" edge="1" parent="259" source="264" target="260">
                    <mxGeometry relative="1" as="geometry"/>
                </mxCell>
                <mxCell id="264" value="" style="rounded=0;whiteSpace=wrap;html=1;fillColor=#d80073;container=0;fontColor=#ffffff;strokeColor=#A50040;" vertex="1" parent="259">
                    <mxGeometry width="6" height="30" as="geometry"/>
                </mxCell>
                <mxCell id="265" value="" style="rounded=0;whiteSpace=wrap;html=1;fillColor=#d80073;container=0;fontColor=#ffffff;strokeColor=#A50040;" vertex="1" parent="259">
                    <mxGeometry x="40" width="16" height="30" as="geometry"/>
                </mxCell>
                <mxCell id="266" style="edgeStyle=none;jumpSize=2;html=1;entryX=0;entryY=0.5;entryDx=0;entryDy=0;strokeColor=default;endArrow=classicThin;endFill=1;startSize=2;endSize=2;" edge="1" parent="259" source="261" target="265">
                    <mxGeometry relative="1" as="geometry"/>
                </mxCell>
                <mxCell id="267" value="" style="rounded=0;whiteSpace=wrap;html=1;fillColor=#d80073;container=0;fontColor=#ffffff;strokeColor=#A50040;" vertex="1" parent="259">
                    <mxGeometry x="78" width="16" height="30" as="geometry"/>
                </mxCell>
                <mxCell id="268" style="edgeStyle=none;jumpSize=2;html=1;entryX=0;entryY=0.5;entryDx=0;entryDy=0;startSize=2;endSize=2;strokeColor=default;dashed=1;dashPattern=1 1;endArrow=none;endFill=0;" edge="1" parent="259" source="265" target="267">
                    <mxGeometry relative="1" as="geometry"/>
                </mxCell>
                <mxCell id="269" value="" style="rounded=0;whiteSpace=wrap;html=1;fillColor=#d80073;container=0;fontColor=#ffffff;strokeColor=#A50040;" vertex="1" parent="259">
                    <mxGeometry x="100" width="20" height="30" as="geometry"/>
                </mxCell>
                <mxCell id="270" style="edgeStyle=none;jumpSize=2;html=1;entryX=0;entryY=0.5;entryDx=0;entryDy=0;strokeColor=default;endArrow=classicThin;endFill=1;startSize=2;endSize=2;" edge="1" parent="259" source="267" target="269">
                    <mxGeometry relative="1" as="geometry"/>
                </mxCell>
                <mxCell id="271" value="" style="rounded=0;whiteSpace=wrap;html=1;fillColor=#d80073;container=0;fontColor=#ffffff;strokeColor=#A50040;" vertex="1" parent="259">
                    <mxGeometry x="126" width="40" height="30" as="geometry"/>
                </mxCell>
                <mxCell id="272" style="edgeStyle=none;jumpSize=2;html=1;entryX=0;entryY=0.5;entryDx=0;entryDy=0;strokeColor=default;endArrow=classicThin;endFill=1;startSize=2;endSize=2;" edge="1" parent="259" source="269" target="271">
                    <mxGeometry relative="1" as="geometry"/>
                </mxCell>
                <mxCell id="359" value="" style="group" vertex="1" connectable="0" parent="402">
                    <mxGeometry x="120" width="80" height="30" as="geometry"/>
                </mxCell>
                <mxCell id="360" value="" style="rounded=0;whiteSpace=wrap;html=1;fillColor=#0050ef;fontColor=#ffffff;strokeColor=#001DBC;" vertex="1" parent="359">
                    <mxGeometry x="70" width="10" height="30" as="geometry"/>
                </mxCell>
                <mxCell id="361" style="edgeStyle=none;jumpSize=2;html=1;entryX=0;entryY=0.5;entryDx=0;entryDy=0;startSize=2;endSize=2;" edge="1" parent="359" source="362" target="360">
                    <mxGeometry relative="1" as="geometry"/>
                </mxCell>
                <mxCell id="362" value="S2" style="text;html=1;strokeColor=none;fillColor=none;align=center;verticalAlign=middle;whiteSpace=wrap;rounded=0;" vertex="1" parent="359">
                    <mxGeometry width="30" height="30" as="geometry"/>
                </mxCell>
                <mxCell id="363" value="" style="group" vertex="1" connectable="0" parent="402">
                    <mxGeometry x="240" width="80" height="30" as="geometry"/>
                </mxCell>
                <mxCell id="364" value="" style="rounded=0;whiteSpace=wrap;html=1;fillColor=#fa6800;fontColor=#000000;strokeColor=#C73500;" vertex="1" parent="363">
                    <mxGeometry x="70" width="10" height="30" as="geometry"/>
                </mxCell>
                <mxCell id="365" style="edgeStyle=none;jumpSize=2;html=1;entryX=0;entryY=0.5;entryDx=0;entryDy=0;startSize=2;endSize=2;" edge="1" parent="363" source="366" target="364">
                    <mxGeometry relative="1" as="geometry"/>
                </mxCell>
                <mxCell id="366" value="S3" style="text;html=1;strokeColor=none;fillColor=none;align=center;verticalAlign=middle;whiteSpace=wrap;rounded=0;" vertex="1" parent="363">
                    <mxGeometry width="30" height="30" as="geometry"/>
                </mxCell>
                <mxCell id="367" value="" style="group" vertex="1" connectable="0" parent="402">
                    <mxGeometry x="360" width="80" height="30" as="geometry"/>
                </mxCell>
                <mxCell id="368" value="" style="rounded=0;whiteSpace=wrap;html=1;fillColor=#a20025;fontColor=#ffffff;strokeColor=#6F0000;" vertex="1" parent="367">
                    <mxGeometry x="40" width="10" height="30" as="geometry"/>
                </mxCell>
                <mxCell id="369" style="edgeStyle=none;jumpSize=2;html=1;entryX=0;entryY=0.5;entryDx=0;entryDy=0;startSize=2;endSize=2;" edge="1" parent="367" source="370" target="368">
                    <mxGeometry relative="1" as="geometry"/>
                </mxCell>
                <mxCell id="370" value="S4" style="text;html=1;strokeColor=none;fillColor=none;align=center;verticalAlign=middle;whiteSpace=wrap;rounded=0;" vertex="1" parent="367">
                    <mxGeometry width="30" height="30" as="geometry"/>
                </mxCell>
                <mxCell id="372" value="S1" style="text;html=1;strokeColor=none;fillColor=none;align=center;verticalAlign=middle;whiteSpace=wrap;rounded=0;" vertex="1" parent="402">
                    <mxGeometry width="30" height="30" as="geometry"/>
                </mxCell>
                <mxCell id="373" value="" style="rounded=0;whiteSpace=wrap;html=1;fillColor=#008a00;fontColor=#ffffff;strokeColor=#005700;" vertex="1" parent="402">
                    <mxGeometry x="70" width="10" height="30" as="geometry"/>
                </mxCell>
                <mxCell id="371" style="edgeStyle=none;jumpSize=2;html=1;entryX=0;entryY=0.5;entryDx=0;entryDy=0;startSize=2;endSize=2;" edge="1" parent="402" source="372" target="373">
                    <mxGeometry relative="1" as="geometry"/>
                </mxCell>
                <mxCell id="374" value="" style="group" vertex="1" connectable="0" parent="402">
                    <mxGeometry x="420" width="170" height="30" as="geometry"/>
                </mxCell>
                <mxCell id="375" value="" style="rounded=0;whiteSpace=wrap;html=1;fillColor=#d80073;container=0;fontColor=#ffffff;strokeColor=#A50040;" vertex="1" parent="374">
                    <mxGeometry x="10" width="10" height="30" as="geometry"/>
                </mxCell>
                <mxCell id="376" value="" style="rounded=0;whiteSpace=wrap;html=1;fillColor=#d80073;container=0;fontColor=#ffffff;strokeColor=#A50040;" vertex="1" parent="374">
                    <mxGeometry x="25" width="10" height="30" as="geometry"/>
                </mxCell>
                <mxCell id="377" style="edgeStyle=none;jumpSize=2;html=1;entryX=0;entryY=0.5;entryDx=0;entryDy=0;strokeColor=default;endArrow=classicThin;endFill=1;startSize=2;endSize=2;" edge="1" parent="374" source="375" target="376">
                    <mxGeometry relative="1" as="geometry"/>
                </mxCell>
                <mxCell id="378" style="edgeStyle=none;jumpSize=2;html=1;entryX=0;entryY=0.5;entryDx=0;entryDy=0;strokeColor=default;endArrow=classicThin;endFill=1;startSize=2;endSize=2;" edge="1" parent="374" source="379" target="375">
                    <mxGeometry relative="1" as="geometry"/>
                </mxCell>
                <mxCell id="379" value="" style="rounded=0;whiteSpace=wrap;html=1;fillColor=#d80073;container=0;fontColor=#ffffff;strokeColor=#A50040;" vertex="1" parent="374">
                    <mxGeometry width="6" height="30" as="geometry"/>
                </mxCell>
                <mxCell id="380" value="" style="rounded=0;whiteSpace=wrap;html=1;fillColor=#d80073;container=0;fontColor=#ffffff;strokeColor=#A50040;" vertex="1" parent="374">
                    <mxGeometry x="40" width="16" height="30" as="geometry"/>
                </mxCell>
                <mxCell id="381" style="edgeStyle=none;jumpSize=2;html=1;entryX=0;entryY=0.5;entryDx=0;entryDy=0;strokeColor=default;endArrow=classicThin;endFill=1;startSize=2;endSize=2;" edge="1" parent="374" source="376" target="380">
                    <mxGeometry relative="1" as="geometry"/>
                </mxCell>
                <mxCell id="382" value="" style="rounded=0;whiteSpace=wrap;html=1;fillColor=#d80073;container=0;fontColor=#ffffff;strokeColor=#A50040;" vertex="1" parent="374">
                    <mxGeometry x="78" width="16" height="30" as="geometry"/>
                </mxCell>
                <mxCell id="383" style="edgeStyle=none;jumpSize=2;html=1;entryX=0;entryY=0.5;entryDx=0;entryDy=0;startSize=2;endSize=2;strokeColor=default;dashed=1;dashPattern=1 1;endArrow=none;endFill=0;" edge="1" parent="374" source="380" target="382">
                    <mxGeometry relative="1" as="geometry"/>
                </mxCell>
                <mxCell id="384" value="" style="rounded=0;whiteSpace=wrap;html=1;fillColor=#d80073;container=0;fontColor=#ffffff;strokeColor=#A50040;" vertex="1" parent="374">
                    <mxGeometry x="100" width="20" height="30" as="geometry"/>
                </mxCell>
                <mxCell id="385" style="edgeStyle=none;jumpSize=2;html=1;entryX=0;entryY=0.5;entryDx=0;entryDy=0;strokeColor=default;endArrow=classicThin;endFill=1;startSize=2;endSize=2;" edge="1" parent="374" source="382" target="384">
                    <mxGeometry relative="1" as="geometry"/>
                </mxCell>
                <mxCell id="386" value="" style="rounded=0;whiteSpace=wrap;html=1;fillColor=#d80073;container=0;fontColor=#ffffff;strokeColor=#A50040;" vertex="1" parent="374">
                    <mxGeometry x="126" width="40" height="30" as="geometry"/>
                </mxCell>
                <mxCell id="387" style="edgeStyle=none;jumpSize=2;html=1;entryX=0;entryY=0.5;entryDx=0;entryDy=0;strokeColor=default;endArrow=classicThin;endFill=1;startSize=2;endSize=2;" edge="1" parent="374" source="384" target="386">
                    <mxGeometry relative="1" as="geometry"/>
                </mxCell>
                <mxCell id="389" style="edgeStyle=none;jumpSize=2;html=1;entryX=0;entryY=0.5;entryDx=0;entryDy=0;strokeColor=default;endArrow=classicThin;endFill=1;startSize=2;endSize=2;" edge="1" parent="402" source="388" target="264">
                    <mxGeometry relative="1" as="geometry"/>
                </mxCell>
                <mxCell id="388" value="Sharepool" style="text;html=1;align=center;verticalAlign=middle;resizable=0;points=[];autosize=1;strokeColor=none;fillColor=none;" vertex="1" parent="402">
                    <mxGeometry x="40" y="50" width="80" height="30" as="geometry"/>
                </mxCell>
                <mxCell id="390" style="edgeStyle=none;jumpSize=2;html=1;entryX=0;entryY=0.5;entryDx=0;entryDy=0;strokeColor=default;endArrow=classicThin;endFill=1;startSize=2;endSize=2;" edge="1" parent="402" source="368" target="379">
                    <mxGeometry relative="1" as="geometry"/>
                </mxCell>
                <mxCell id="396" value="" style="group" vertex="1" connectable="0" parent="1">
                    <mxGeometry x="40" y="150" width="610" height="30" as="geometry"/>
                </mxCell>
                <mxCell id="28" value="" style="group" vertex="1" connectable="0" parent="396">
                    <mxGeometry width="130" height="30" as="geometry"/>
                </mxCell>
                <mxCell id="4" value="S1" style="text;html=1;strokeColor=none;fillColor=none;align=center;verticalAlign=middle;whiteSpace=wrap;rounded=0;" vertex="1" parent="28">
                    <mxGeometry width="30" height="30" as="geometry"/>
                </mxCell>
                <mxCell id="5" value="NULL" style="text;html=1;strokeColor=none;fillColor=none;align=center;verticalAlign=middle;whiteSpace=wrap;rounded=0;" vertex="1" parent="28">
                    <mxGeometry x="90" width="40" height="30" as="geometry"/>
                </mxCell>
                <mxCell id="6" style="edgeStyle=none;html=1;" edge="1" parent="28" source="4" target="5">
                    <mxGeometry relative="1" as="geometry"/>
                </mxCell>
                <mxCell id="29" value="" style="group" vertex="1" connectable="0" parent="396">
                    <mxGeometry x="160" width="130" height="30" as="geometry"/>
                </mxCell>
                <mxCell id="11" value="S2" style="text;html=1;strokeColor=none;fillColor=none;align=center;verticalAlign=middle;whiteSpace=wrap;rounded=0;" vertex="1" parent="29">
                    <mxGeometry width="30" height="30" as="geometry"/>
                </mxCell>
                <mxCell id="12" value="NULL" style="text;html=1;strokeColor=none;fillColor=none;align=center;verticalAlign=middle;whiteSpace=wrap;rounded=0;" vertex="1" parent="29">
                    <mxGeometry x="90" width="40" height="30" as="geometry"/>
                </mxCell>
                <mxCell id="10" style="edgeStyle=none;html=1;" edge="1" parent="29" source="11" target="12">
                    <mxGeometry relative="1" as="geometry"/>
                </mxCell>
                <mxCell id="30" value="" style="group" vertex="1" connectable="0" parent="396">
                    <mxGeometry x="320" width="130" height="30" as="geometry"/>
                </mxCell>
                <mxCell id="14" value="S3" style="text;html=1;strokeColor=none;fillColor=none;align=center;verticalAlign=middle;whiteSpace=wrap;rounded=0;" vertex="1" parent="30">
                    <mxGeometry width="30" height="30" as="geometry"/>
                </mxCell>
                <mxCell id="15" value="NULL" style="text;html=1;strokeColor=none;fillColor=none;align=center;verticalAlign=middle;whiteSpace=wrap;rounded=0;" vertex="1" parent="30">
                    <mxGeometry x="90" width="40" height="30" as="geometry"/>
                </mxCell>
                <mxCell id="13" style="edgeStyle=none;html=1;" edge="1" parent="30" source="14" target="15">
                    <mxGeometry relative="1" as="geometry"/>
                </mxCell>
                <mxCell id="31" value="" style="group" vertex="1" connectable="0" parent="396">
                    <mxGeometry x="480" width="130" height="30" as="geometry"/>
                </mxCell>
                <mxCell id="17" value="S4" style="text;html=1;strokeColor=none;fillColor=none;align=center;verticalAlign=middle;whiteSpace=wrap;rounded=0;" vertex="1" parent="31">
                    <mxGeometry width="30" height="30" as="geometry"/>
                </mxCell>
                <mxCell id="18" value="NULL" style="text;html=1;strokeColor=none;fillColor=none;align=center;verticalAlign=middle;whiteSpace=wrap;rounded=0;" vertex="1" parent="31">
                    <mxGeometry x="90" width="40" height="30" as="geometry"/>
                </mxCell>
                <mxCell id="16" style="edgeStyle=none;html=1;" edge="1" parent="31" source="17" target="18">
                    <mxGeometry relative="1" as="geometry"/>
                </mxCell>
                <mxCell id="417" style="edgeStyle=none;jumpSize=2;html=1;strokeColor=default;fontSize=16;endArrow=classicThin;endFill=1;startSize=2;endSize=2;strokeWidth=3;" edge="1" parent="1" source="413">
                    <mxGeometry relative="1" as="geometry">
                        <mxPoint x="650" y="250" as="targetPoint"/>
                        <Array as="points">
                            <mxPoint x="720" y="610"/>
                            <mxPoint x="720" y="250"/>
                        </Array>
                    </mxGeometry>
                </mxCell>
            </root>
        </mxGraphModel>
    </diagram>
</mxfile>